<svg width="172" height="13" viewBox="0 0 172 13" fill="none" xmlns="http://www.w3.org/2000/svg">
<path d="M7.17045 3.85227C7.13258 3.43561 6.96402 3.11174 6.66477 2.88068C6.36932 2.64583 5.94697 2.52841 5.39773 2.52841C5.03409 2.52841 4.73106 2.57576 4.48864 2.67045C4.24621 2.76515 4.06439 2.89583 3.94318 3.0625C3.82197 3.22538 3.75947 3.41288 3.75568 3.625C3.74811 3.79924 3.7822 3.95265 3.85795 4.08523C3.9375 4.2178 4.05114 4.33523 4.19886 4.4375C4.35038 4.53598 4.5322 4.62311 4.74432 4.69886C4.95644 4.77462 5.19508 4.84091 5.46023 4.89773L6.46023 5.125C7.03599 5.25 7.54356 5.41667 7.98295 5.625C8.42614 5.83333 8.79735 6.08144 9.09659 6.36932C9.39962 6.6572 9.62879 6.98864 9.78409 7.36364C9.93939 7.73864 10.0189 8.15909 10.0227 8.625C10.0189 9.35985 9.83333 9.99053 9.46591 10.517C9.09848 11.0436 8.57008 11.447 7.88068 11.7273C7.19508 12.0076 6.36742 12.1477 5.39773 12.1477C4.42424 12.1477 3.57576 12.0019 2.85227 11.7102C2.12879 11.4186 1.56629 10.9754 1.16477 10.3807C0.763258 9.78598 0.556818 9.03409 0.545455 8.125H3.23864C3.26136 8.5 3.36174 8.8125 3.53977 9.0625C3.7178 9.3125 3.96212 9.50189 4.27273 9.63068C4.58712 9.75947 4.95076 9.82386 5.36364 9.82386C5.74242 9.82386 6.06439 9.77273 6.32955 9.67045C6.59849 9.56818 6.80492 9.42614 6.94886 9.24432C7.0928 9.0625 7.16667 8.85417 7.17045 8.61932C7.16667 8.39962 7.09849 8.21212 6.96591 8.05682C6.83333 7.89773 6.62879 7.76136 6.35227 7.64773C6.07955 7.5303 5.73106 7.42235 5.30682 7.32386L4.09091 7.03977C3.08333 6.80871 2.28977 6.43561 1.71023 5.92045C1.13068 5.40151 0.842803 4.70076 0.846591 3.81818C0.842803 3.09848 1.03598 2.4678 1.42614 1.92614C1.81629 1.38447 2.35606 0.962121 3.04545 0.659091C3.73485 0.35606 4.52083 0.204545 5.40341 0.204545C6.30492 0.204545 7.08712 0.357954 7.75 0.664772C8.41667 0.967803 8.93371 1.39394 9.30114 1.94318C9.66856 2.49242 9.85606 3.12879 9.86364 3.85227H7.17045ZM14.0852 0.363636L16.6875 8.88636H16.7841L19.3864 0.363636H22.5341L18.608 12H14.8636L10.9375 0.363636H14.0852ZM23.2074 0.363636H26.3494L28.8097 5.23295H28.9119L31.3722 0.363636H34.5142L30.2585 8.11364V12H27.4631V8.11364L23.2074 0.363636ZM35.6932 12V0.363636H40.5C41.3712 0.363636 42.1231 0.534091 42.7557 0.875C43.392 1.21212 43.8826 1.68371 44.2273 2.28977C44.572 2.89205 44.7443 3.5928 44.7443 4.39205C44.7443 5.19508 44.5682 5.89773 44.2159 6.5C43.8674 7.09848 43.3693 7.5625 42.7216 7.89205C42.0739 8.22159 41.3049 8.38636 40.4148 8.38636H37.4489V6.17045H39.892C40.3163 6.17045 40.6705 6.09659 40.9545 5.94886C41.2424 5.80114 41.4602 5.5947 41.608 5.32955C41.7557 5.06061 41.8295 4.74811 41.8295 4.39205C41.8295 4.0322 41.7557 3.72159 41.608 3.46023C41.4602 3.19508 41.2424 2.99053 40.9545 2.84659C40.6667 2.70265 40.3125 2.63068 39.892 2.63068H38.5057V12H35.6932ZM50.892 12.0909C50.6117 12.0909 50.3712 11.9905 50.1705 11.7898C49.9697 11.589 49.8693 11.3485 49.8693 11.0682C49.8693 10.7879 49.9697 10.5473 50.1705 10.3466C50.3712 10.1458 50.6117 10.0455 50.892 10.0455C51.1723 10.0455 51.4129 10.1458 51.6136 10.3466C51.8144 10.5473 51.9148 10.7879 51.9148 11.0682C51.9148 11.2538 51.8674 11.4242 51.7727 11.5795C51.6818 11.7348 51.5587 11.8598 51.4034 11.9545C51.2519 12.0455 51.0814 12.0909 50.892 12.0909ZM50.892 5.61364C50.6117 5.61364 50.3712 5.51326 50.1705 5.3125C49.9697 5.11174 49.8693 4.87121 49.8693 4.59091C49.8693 4.31061 49.9697 4.07008 50.1705 3.86932C50.3712 3.66856 50.6117 3.56818 50.892 3.56818C51.1723 3.56818 51.4129 3.66856 51.6136 3.86932C51.8144 4.07008 51.9148 4.31061 51.9148 4.59091C51.9148 4.77652 51.8674 4.94697 51.7727 5.10227C51.6818 5.25758 51.5587 5.38258 51.4034 5.47727C51.2519 5.56818 51.0814 5.61364 50.892 5.61364ZM62.5938 12H59.0028V0.363636H62.7528C63.8816 0.363636 64.8475 0.596591 65.6506 1.0625C66.4536 1.52462 67.0691 2.18939 67.4972 3.05682C67.9252 3.92045 68.1392 4.95455 68.1392 6.15909C68.1392 7.37121 67.9233 8.41477 67.4915 9.28977C67.0597 10.161 66.4309 10.8314 65.6051 11.3011C64.7794 11.767 63.7756 12 62.5938 12ZM60.4119 10.75H62.5028C63.465 10.75 64.2623 10.5644 64.8949 10.1932C65.5275 9.82197 65.9991 9.29356 66.3097 8.60795C66.6203 7.92235 66.7756 7.10606 66.7756 6.15909C66.7756 5.2197 66.6222 4.41098 66.3153 3.73295C66.0085 3.05114 65.5502 2.52841 64.9403 2.16477C64.3305 1.79735 63.571 1.61364 62.6619 1.61364H60.4119V10.75ZM73.8665 12.1818C73.0786 12.1818 72.3873 11.9943 71.7926 11.6193C71.2017 11.2443 70.7396 10.7197 70.4062 10.0455C70.0767 9.37121 69.9119 8.58333 69.9119 7.68182C69.9119 6.77273 70.0767 5.97917 70.4062 5.30114C70.7396 4.62311 71.2017 4.09659 71.7926 3.72159C72.3873 3.34659 73.0786 3.15909 73.8665 3.15909C74.6544 3.15909 75.3438 3.34659 75.9347 3.72159C76.5294 4.09659 76.9915 4.62311 77.321 5.30114C77.6544 5.97917 77.821 6.77273 77.821 7.68182C77.821 8.58333 77.6544 9.37121 77.321 10.0455C76.9915 10.7197 76.5294 11.2443 75.9347 11.6193C75.3438 11.9943 74.6544 12.1818 73.8665 12.1818ZM73.8665 10.9773C74.465 10.9773 74.9574 10.8239 75.3438 10.517C75.7301 10.2102 76.0161 9.80682 76.2017 9.30682C76.3873 8.80682 76.4801 8.26515 76.4801 7.68182C76.4801 7.09848 76.3873 6.55492 76.2017 6.05114C76.0161 5.54735 75.7301 5.14015 75.3438 4.82955C74.9574 4.51894 74.465 4.36364 73.8665 4.36364C73.268 4.36364 72.7756 4.51894 72.3892 4.82955C72.0028 5.14015 71.7169 5.54735 71.5312 6.05114C71.3456 6.55492 71.2528 7.09848 71.2528 7.68182C71.2528 8.26515 71.3456 8.80682 71.5312 9.30682C71.7169 9.80682 72.0028 10.2102 72.3892 10.517C72.7756 10.8239 73.268 10.9773 73.8665 10.9773ZM83.4134 12.1818C82.5952 12.1818 81.8906 11.9886 81.2997 11.6023C80.7088 11.2159 80.2543 10.6837 79.9361 10.0057C79.6179 9.32765 79.4588 8.55303 79.4588 7.68182C79.4588 6.79545 79.6217 6.01326 79.9474 5.33523C80.277 4.65341 80.7353 4.12121 81.3224 3.73864C81.9134 3.35227 82.6027 3.15909 83.3906 3.15909C84.0043 3.15909 84.5573 3.27273 85.0497 3.5C85.5421 3.72727 85.9455 4.04545 86.2599 4.45455C86.5743 4.86364 86.7694 5.34091 86.8452 5.88636H85.5043C85.402 5.48864 85.1747 5.13636 84.8224 4.82955C84.474 4.51894 84.0043 4.36364 83.4134 4.36364C82.8906 4.36364 82.4323 4.5 82.0384 4.77273C81.6482 5.04167 81.3433 5.42235 81.1236 5.91477C80.9077 6.40341 80.7997 6.97727 80.7997 7.63636C80.7997 8.31061 80.9058 8.89773 81.1179 9.39773C81.3338 9.89773 81.6368 10.286 82.027 10.5625C82.4209 10.839 82.883 10.9773 83.4134 10.9773C83.7618 10.9773 84.0781 10.9167 84.3622 10.7955C84.6463 10.6742 84.8868 10.5 85.0838 10.2727C85.2808 10.0455 85.4209 9.77273 85.5043 9.45455H86.8452C86.7694 9.9697 86.5819 10.4337 86.2827 10.8466C85.9872 11.2557 85.5952 11.5814 85.1065 11.8239C84.6217 12.0625 84.0573 12.1818 83.4134 12.1818ZM94.3054 8.43182V3.27273H95.6463V12H94.3054V10.5227H94.2145C94.0099 10.9659 93.6918 11.3428 93.2599 11.6534C92.8281 11.9602 92.2827 12.1136 91.6236 12.1136C91.0781 12.1136 90.5933 11.9943 90.169 11.7557C89.7448 11.5133 89.4115 11.1496 89.169 10.6648C88.9266 10.1761 88.8054 9.56061 88.8054 8.81818V3.27273H90.1463V8.72727C90.1463 9.36364 90.3243 9.87121 90.6804 10.25C91.0402 10.6288 91.4986 10.8182 92.0554 10.8182C92.3887 10.8182 92.7277 10.733 93.0724 10.5625C93.4209 10.392 93.7126 10.1307 93.9474 9.77841C94.1861 9.42614 94.3054 8.97727 94.3054 8.43182ZM98.1023 12V3.27273H99.3977V4.63636H99.5114C99.6932 4.17045 99.9867 3.80871 100.392 3.55114C100.797 3.28977 101.284 3.15909 101.852 3.15909C102.428 3.15909 102.907 3.28977 103.29 3.55114C103.676 3.80871 103.977 4.17045 104.193 4.63636H104.284C104.508 4.18561 104.843 3.82765 105.29 3.5625C105.737 3.29356 106.273 3.15909 106.898 3.15909C107.678 3.15909 108.316 3.40341 108.812 3.89205C109.309 4.37689 109.557 5.13258 109.557 6.15909V12H108.216V6.15909C108.216 5.51515 108.04 5.05492 107.688 4.77841C107.335 4.50189 106.92 4.36364 106.443 4.36364C105.83 4.36364 105.354 4.54924 105.017 4.92045C104.68 5.28788 104.511 5.75379 104.511 6.31818V12H103.148V6.02273C103.148 5.52652 102.987 5.12689 102.665 4.82386C102.343 4.51705 101.928 4.36364 101.42 4.36364C101.072 4.36364 100.746 4.45644 100.443 4.64205C100.144 4.82765 99.9015 5.08523 99.7159 5.41477C99.5341 5.74053 99.4432 6.11742 99.4432 6.54545V12H98.1023ZM115.668 12.1818C114.827 12.1818 114.101 11.9962 113.491 11.625C112.885 11.25 112.418 10.7273 112.088 10.0568C111.762 9.38258 111.599 8.59848 111.599 7.70455C111.599 6.81061 111.762 6.02273 112.088 5.34091C112.418 4.6553 112.876 4.12121 113.463 3.73864C114.054 3.35227 114.743 3.15909 115.531 3.15909C115.986 3.15909 116.435 3.23485 116.878 3.38636C117.321 3.53788 117.724 3.78409 118.088 4.125C118.452 4.46212 118.741 4.90909 118.957 5.46591C119.173 6.02273 119.281 6.70833 119.281 7.52273V8.09091H112.554V6.93182H117.918C117.918 6.43939 117.819 6 117.622 5.61364C117.429 5.22727 117.152 4.92235 116.793 4.69886C116.437 4.47538 116.016 4.36364 115.531 4.36364C114.997 4.36364 114.535 4.49621 114.145 4.76136C113.759 5.02273 113.461 5.36364 113.253 5.78409C113.045 6.20455 112.94 6.6553 112.94 7.13636V7.90909C112.94 8.56818 113.054 9.12689 113.281 9.58523C113.512 10.0398 113.832 10.3864 114.241 10.625C114.651 10.8598 115.126 10.9773 115.668 10.9773C116.02 10.9773 116.338 10.928 116.622 10.8295C116.91 10.7273 117.158 10.5758 117.366 10.375C117.575 10.1705 117.736 9.91667 117.849 9.61364L119.145 9.97727C119.009 10.4167 118.779 10.803 118.457 11.1364C118.135 11.4659 117.738 11.7235 117.264 11.9091C116.791 12.0909 116.259 12.1818 115.668 12.1818ZM122.662 6.75V12H121.321V3.27273H122.616V4.63636H122.73C122.935 4.19318 123.245 3.83712 123.662 3.56818C124.079 3.29545 124.616 3.15909 125.276 3.15909C125.866 3.15909 126.384 3.2803 126.827 3.52273C127.27 3.76136 127.615 4.125 127.861 4.61364C128.107 5.09848 128.23 5.71212 128.23 6.45455V12H126.889V6.54545C126.889 5.85985 126.711 5.32576 126.355 4.94318C125.999 4.55682 125.51 4.36364 124.889 4.36364C124.461 4.36364 124.079 4.45644 123.741 4.64205C123.408 4.82765 123.145 5.09848 122.952 5.45455C122.759 5.81061 122.662 6.24242 122.662 6.75ZM134.476 3.27273V4.40909H129.953V3.27273H134.476ZM131.271 1.18182H132.612V9.5C132.612 9.87879 132.667 10.1629 132.777 10.3523C132.891 10.5379 133.035 10.6629 133.209 10.7273C133.387 10.7879 133.574 10.8182 133.771 10.8182C133.919 10.8182 134.04 10.8106 134.135 10.7955C134.23 10.7765 134.305 10.7614 134.362 10.75L134.635 11.9545C134.544 11.9886 134.417 12.0227 134.254 12.0568C134.091 12.0947 133.885 12.1136 133.635 12.1136C133.256 12.1136 132.885 12.0322 132.521 11.8693C132.161 11.7064 131.862 11.4583 131.624 11.125C131.389 10.7917 131.271 10.3712 131.271 9.86364V1.18182ZM139.061 12.2045C138.508 12.2045 138.006 12.1004 137.555 11.892C137.105 11.6799 136.747 11.375 136.482 10.9773C136.216 10.5758 136.084 10.0909 136.084 9.52273C136.084 9.02273 136.182 8.61742 136.379 8.30682C136.576 7.99242 136.839 7.74621 137.169 7.56818C137.499 7.39015 137.862 7.25758 138.26 7.17045C138.661 7.07955 139.065 7.00758 139.47 6.95455C140 6.88636 140.43 6.83523 140.76 6.80114C141.093 6.76326 141.336 6.70076 141.487 6.61364C141.643 6.52652 141.72 6.375 141.72 6.15909V6.11364C141.72 5.55303 141.567 5.11742 141.26 4.80682C140.957 4.49621 140.497 4.34091 139.879 4.34091C139.239 4.34091 138.737 4.48106 138.374 4.76136C138.01 5.04167 137.754 5.34091 137.607 5.65909L136.334 5.20455C136.561 4.67424 136.864 4.26136 137.243 3.96591C137.625 3.66667 138.042 3.45833 138.493 3.34091C138.947 3.2197 139.394 3.15909 139.834 3.15909C140.114 3.15909 140.436 3.19318 140.8 3.26136C141.167 3.32576 141.521 3.46023 141.862 3.66477C142.207 3.86932 142.493 4.17803 142.72 4.59091C142.947 5.00379 143.061 5.55682 143.061 6.25V12H141.72V10.8182H141.652C141.561 11.0076 141.41 11.2102 141.197 11.4261C140.985 11.642 140.703 11.8258 140.351 11.9773C139.999 12.1288 139.569 12.2045 139.061 12.2045ZM139.266 11C139.796 11 140.243 10.8958 140.607 10.6875C140.974 10.4792 141.25 10.2102 141.436 9.88068C141.625 9.55114 141.72 9.20455 141.72 8.84091V7.61364C141.663 7.68182 141.538 7.74432 141.345 7.80114C141.156 7.85417 140.936 7.90151 140.686 7.94318C140.44 7.98106 140.199 8.01515 139.964 8.04545C139.733 8.07197 139.546 8.0947 139.402 8.11364C139.054 8.15909 138.728 8.23295 138.425 8.33523C138.125 8.43371 137.883 8.58333 137.697 8.78409C137.516 8.98106 137.425 9.25 137.425 9.59091C137.425 10.0568 137.597 10.4091 137.942 10.6477C138.29 10.8826 138.732 11 139.266 11ZM149.304 3.27273V4.40909H144.781V3.27273H149.304ZM146.099 1.18182H147.44V9.5C147.44 9.87879 147.495 10.1629 147.605 10.3523C147.719 10.5379 147.863 10.6629 148.037 10.7273C148.215 10.7879 148.402 10.8182 148.599 10.8182C148.747 10.8182 148.868 10.8106 148.963 10.7955C149.058 10.7765 149.134 10.7614 149.19 10.75L149.463 11.9545C149.372 11.9886 149.245 12.0227 149.082 12.0568C148.92 12.0947 148.713 12.1136 148.463 12.1136C148.084 12.1136 147.713 12.0322 147.349 11.8693C146.99 11.7064 146.69 11.4583 146.452 11.125C146.217 10.7917 146.099 10.3712 146.099 9.86364V1.18182ZM151.321 12V3.27273H152.662V12H151.321ZM152.003 1.81818C151.741 1.81818 151.516 1.72917 151.327 1.55114C151.141 1.37311 151.048 1.15909 151.048 0.909091C151.048 0.659091 151.141 0.445076 151.327 0.267045C151.516 0.089015 151.741 0 152.003 0C152.264 0 152.488 0.089015 152.673 0.267045C152.863 0.445076 152.957 0.659091 152.957 0.909091C152.957 1.15909 152.863 1.37311 152.673 1.55114C152.488 1.72917 152.264 1.81818 152.003 1.81818ZM158.663 12.1818C157.875 12.1818 157.184 11.9943 156.589 11.6193C155.999 11.2443 155.536 10.7197 155.203 10.0455C154.874 9.37121 154.709 8.58333 154.709 7.68182C154.709 6.77273 154.874 5.97917 155.203 5.30114C155.536 4.62311 155.999 4.09659 156.589 3.72159C157.184 3.34659 157.875 3.15909 158.663 3.15909C159.451 3.15909 160.141 3.34659 160.732 3.72159C161.326 4.09659 161.788 4.62311 162.118 5.30114C162.451 5.97917 162.618 6.77273 162.618 7.68182C162.618 8.58333 162.451 9.37121 162.118 10.0455C161.788 10.7197 161.326 11.2443 160.732 11.6193C160.141 11.9943 159.451 12.1818 158.663 12.1818ZM158.663 10.9773C159.262 10.9773 159.754 10.8239 160.141 10.517C160.527 10.2102 160.813 9.80682 160.999 9.30682C161.184 8.80682 161.277 8.26515 161.277 7.68182C161.277 7.09848 161.184 6.55492 160.999 6.05114C160.813 5.54735 160.527 5.14015 160.141 4.82955C159.754 4.51894 159.262 4.36364 158.663 4.36364C158.065 4.36364 157.572 4.51894 157.186 4.82955C156.8 5.14015 156.514 5.54735 156.328 6.05114C156.143 6.55492 156.05 7.09848 156.05 7.68182C156.05 8.26515 156.143 8.80682 156.328 9.30682C156.514 9.80682 156.8 10.2102 157.186 10.517C157.572 10.8239 158.065 10.9773 158.663 10.9773ZM166.006 6.75V12H164.665V3.27273H165.96V4.63636H166.074C166.278 4.19318 166.589 3.83712 167.006 3.56818C167.422 3.29545 167.96 3.15909 168.619 3.15909C169.21 3.15909 169.727 3.2803 170.17 3.52273C170.614 3.76136 170.958 4.125 171.205 4.61364C171.451 5.09848 171.574 5.71212 171.574 6.45455V12H170.233V6.54545C170.233 5.85985 170.055 5.32576 169.699 4.94318C169.343 4.55682 168.854 4.36364 168.233 4.36364C167.805 4.36364 167.422 4.45644 167.085 4.64205C166.752 4.82765 166.489 5.09848 166.295 5.45455C166.102 5.81061 166.006 6.24242 166.006 6.75Z" fill="black"/>
</svg>
